<mxfile host="app.diagrams.net" agent="Mozilla/5.0 (Windows NT 10.0; Win64; x64) AppleWebKit/537.36 (KHTML, like Gecko) Chrome/138.0.0.0 Safari/537.36" version="27.1.6">
  <diagram name="Página-1" id="fSYM8z84vHrLpdh59CZX">
    <mxGraphModel grid="1" page="1" gridSize="10" guides="1" tooltips="1" connect="1" arrows="1" fold="1" pageScale="1" pageWidth="827" pageHeight="1169" math="0" shadow="0">
      <root>
        <mxCell id="0" />
        <mxCell id="1" parent="0" />
        <mxCell id="OHCb3kpunpdSkLjku3Yf-1" value="CU047 Crear Encuesta" style="swimlane;childLayout=stackLayout;resizeParent=1;resizeParentMax=0;startSize=20;horizontal=0;horizontalStack=1;" vertex="1" parent="1">
          <mxGeometry x="-160" y="-1000" width="950" height="1060" as="geometry">
            <mxRectangle x="200" y="80" width="40" height="50" as="alternateBounds" />
          </mxGeometry>
        </mxCell>
        <mxCell id="OHCb3kpunpdSkLjku3Yf-2" style="edgeStyle=orthogonalEdgeStyle;rounded=0;orthogonalLoop=1;jettySize=auto;html=1;exitX=1;exitY=0.5;exitDx=0;exitDy=0;strokeColor=light-dark(#ff0000, #ededed);entryX=0.583;entryY=0;entryDx=0;entryDy=0;entryPerimeter=0;" edge="1" parent="OHCb3kpunpdSkLjku3Yf-1" source="OHCb3kpunpdSkLjku3Yf-11" target="OHCb3kpunpdSkLjku3Yf-20">
          <mxGeometry relative="1" as="geometry">
            <mxPoint x="392" y="220" as="sourcePoint" />
          </mxGeometry>
        </mxCell>
        <mxCell id="OHCb3kpunpdSkLjku3Yf-3" value="si" style="edgeLabel;html=1;align=center;verticalAlign=middle;resizable=0;points=[];" connectable="0" vertex="1" parent="OHCb3kpunpdSkLjku3Yf-2">
          <mxGeometry x="-0.7201" y="-1" relative="1" as="geometry">
            <mxPoint as="offset" />
          </mxGeometry>
        </mxCell>
        <mxCell id="OHCb3kpunpdSkLjku3Yf-4" value="no&amp;nbsp;" style="edgeStyle=orthogonalEdgeStyle;rounded=0;orthogonalLoop=1;jettySize=auto;html=1;entryX=0;entryY=0.5;entryDx=0;entryDy=0;fillColor=#FF0000;strokeColor=light-dark(#ff0000, #ededed);exitX=0;exitY=0.5;exitDx=0;exitDy=0;" edge="1" parent="OHCb3kpunpdSkLjku3Yf-1" source="OHCb3kpunpdSkLjku3Yf-11" target="OHCb3kpunpdSkLjku3Yf-19">
          <mxGeometry relative="1" as="geometry">
            <mxPoint x="790" y="890" as="targetPoint" />
            <Array as="points">
              <mxPoint x="56" y="123" />
              <mxPoint x="56" y="940" />
              <mxPoint x="810" y="940" />
            </Array>
          </mxGeometry>
        </mxCell>
        <mxCell id="OHCb3kpunpdSkLjku3Yf-5" style="edgeStyle=orthogonalEdgeStyle;rounded=0;orthogonalLoop=1;jettySize=auto;html=1;entryX=0.6;entryY=0.076;entryDx=0;entryDy=0;entryPerimeter=0;strokeColor=#FF0000;" edge="1" parent="OHCb3kpunpdSkLjku3Yf-1" source="OHCb3kpunpdSkLjku3Yf-20" target="OHCb3kpunpdSkLjku3Yf-12">
          <mxGeometry relative="1" as="geometry">
            <mxPoint x="574.4000000000001" y="328.75" as="targetPoint" />
          </mxGeometry>
        </mxCell>
        <mxCell id="OHCb3kpunpdSkLjku3Yf-6" style="edgeStyle=orthogonalEdgeStyle;rounded=0;orthogonalLoop=1;jettySize=auto;html=1;entryX=0.5;entryY=0;entryDx=0;entryDy=0;strokeColor=#FF0000;" edge="1" parent="OHCb3kpunpdSkLjku3Yf-1" source="OHCb3kpunpdSkLjku3Yf-12" target="OHCb3kpunpdSkLjku3Yf-21">
          <mxGeometry relative="1" as="geometry">
            <mxPoint x="750" y="320" as="targetPoint" />
          </mxGeometry>
        </mxCell>
        <mxCell id="OHCb3kpunpdSkLjku3Yf-8" value="Administrador" style="swimlane;startSize=20;" vertex="1" parent="OHCb3kpunpdSkLjku3Yf-1">
          <mxGeometry x="20" width="486" height="1060" as="geometry" />
        </mxCell>
        <mxCell id="OHCb3kpunpdSkLjku3Yf-9" style="edgeStyle=orthogonalEdgeStyle;rounded=0;orthogonalLoop=1;jettySize=auto;html=1;entryX=0.5;entryY=0;entryDx=0;entryDy=0;" edge="1" parent="OHCb3kpunpdSkLjku3Yf-8" source="OHCb3kpunpdSkLjku3Yf-10" target="OHCb3kpunpdSkLjku3Yf-11">
          <mxGeometry relative="1" as="geometry" />
        </mxCell>
        <mxCell id="OHCb3kpunpdSkLjku3Yf-10" value="" style="ellipse;html=1;shape=startState;fillColor=#000000;strokeColor=#ff0000;fillStyle=auto;" vertex="1" parent="OHCb3kpunpdSkLjku3Yf-8">
          <mxGeometry x="180" y="30" width="30" height="30" as="geometry" />
        </mxCell>
        <mxCell id="OHCb3kpunpdSkLjku3Yf-11" value="Pulsar el aparatado de &quot;Encuesta&quot;" style="rhombus;whiteSpace=wrap;html=1;fontColor=#000000;fillColor=#ffffc0;strokeColor=#ff0000;" vertex="1" parent="OHCb3kpunpdSkLjku3Yf-8">
          <mxGeometry x="137" y="80" width="116" height="86" as="geometry" />
        </mxCell>
        <mxCell id="OHCb3kpunpdSkLjku3Yf-12" value="Pulsa &quot;Crear Encuesta&quot;" style="rounded=1;whiteSpace=wrap;html=1;arcSize=40;fontColor=#000000;fillColor=#ffffc0;strokeColor=#ff0000;" vertex="1" parent="OHCb3kpunpdSkLjku3Yf-8">
          <mxGeometry x="90" y="270" width="120" height="50" as="geometry" />
        </mxCell>
        <mxCell id="OHCb3kpunpdSkLjku3Yf-13" value="Diligencia las preguntas&amp;nbsp; &amp;nbsp;" style="rounded=1;whiteSpace=wrap;html=1;fillColor=#ffffc0;strokeColor=#ff0000;fontColor=#000000;arcSize=40;" vertex="1" parent="OHCb3kpunpdSkLjku3Yf-8">
          <mxGeometry x="110" y="550" width="120" height="60" as="geometry" />
        </mxCell>
        <mxCell id="OHCb3kpunpdSkLjku3Yf-35" value="Pulsar botones y &quot;Guardar la encuesta&quot;" style="rounded=1;whiteSpace=wrap;html=1;fillColor=#ffffc0;strokeColor=#ff0000;fontColor=#000000;arcSize=40;" vertex="1" parent="OHCb3kpunpdSkLjku3Yf-8">
          <mxGeometry x="100" y="740" width="120" height="60" as="geometry" />
        </mxCell>
        <mxCell id="OHCb3kpunpdSkLjku3Yf-16" style="edgeStyle=orthogonalEdgeStyle;rounded=0;orthogonalLoop=1;jettySize=auto;html=1;strokeColor=#FF0000;entryX=0.5;entryY=0;entryDx=0;entryDy=0;exitX=0.5;exitY=1;exitDx=0;exitDy=0;" edge="1" parent="OHCb3kpunpdSkLjku3Yf-8" source="OHCb3kpunpdSkLjku3Yf-13" target="OHCb3kpunpdSkLjku3Yf-35">
          <mxGeometry relative="1" as="geometry">
            <mxPoint x="726" y="620" as="targetPoint" />
            <Array as="points">
              <mxPoint x="160" y="610" />
            </Array>
          </mxGeometry>
        </mxCell>
        <mxCell id="OHCb3kpunpdSkLjku3Yf-40" style="edgeStyle=orthogonalEdgeStyle;rounded=0;orthogonalLoop=1;jettySize=auto;html=1;entryX=0.417;entryY=0.033;entryDx=0;entryDy=0;entryPerimeter=0;" edge="1" parent="OHCb3kpunpdSkLjku3Yf-1" source="OHCb3kpunpdSkLjku3Yf-38" target="OHCb3kpunpdSkLjku3Yf-13">
          <mxGeometry relative="1" as="geometry" />
        </mxCell>
        <mxCell id="OHCb3kpunpdSkLjku3Yf-18" value="Sistema" style="swimlane;startSize=20;" vertex="1" parent="OHCb3kpunpdSkLjku3Yf-1">
          <mxGeometry x="506" width="444" height="1060" as="geometry" />
        </mxCell>
        <mxCell id="OHCb3kpunpdSkLjku3Yf-19" value="" style="ellipse;html=1;shape=endState;fillColor=#000000;strokeColor=#ff0000;" vertex="1" parent="OHCb3kpunpdSkLjku3Yf-18">
          <mxGeometry x="390" y="1000" width="30" height="30" as="geometry" />
        </mxCell>
        <mxCell id="OHCb3kpunpdSkLjku3Yf-20" value="Lo redirige al apartado&amp;nbsp;" style="rounded=1;whiteSpace=wrap;html=1;arcSize=40;fontColor=#000000;fillColor=#ffffc0;strokeColor=#ff0000;" vertex="1" parent="OHCb3kpunpdSkLjku3Yf-18">
          <mxGeometry x="230" y="208" width="120" height="50" as="geometry" />
        </mxCell>
        <mxCell id="OHCb3kpunpdSkLjku3Yf-39" value="" style="edgeStyle=orthogonalEdgeStyle;rounded=0;orthogonalLoop=1;jettySize=auto;html=1;" edge="1" parent="OHCb3kpunpdSkLjku3Yf-18" source="OHCb3kpunpdSkLjku3Yf-21" target="OHCb3kpunpdSkLjku3Yf-38">
          <mxGeometry relative="1" as="geometry" />
        </mxCell>
        <mxCell id="OHCb3kpunpdSkLjku3Yf-21" value="Muestra los espacios de pregunta." style="rounded=1;whiteSpace=wrap;html=1;fillColor=#ffffc0;strokeColor=#ff0000;fontColor=#000000;arcSize=40;" vertex="1" parent="OHCb3kpunpdSkLjku3Yf-18">
          <mxGeometry x="240" y="330" width="120" height="60" as="geometry" />
        </mxCell>
        <mxCell id="OHCb3kpunpdSkLjku3Yf-43" style="edgeStyle=orthogonalEdgeStyle;rounded=0;orthogonalLoop=1;jettySize=auto;html=1;entryX=0.5;entryY=0;entryDx=0;entryDy=0;exitX=0.5;exitY=1;exitDx=0;exitDy=0;" edge="1" parent="OHCb3kpunpdSkLjku3Yf-18" source="OHCb3kpunpdSkLjku3Yf-37" target="Ns2S3s4eIvrN6nV5XpnW-3">
          <mxGeometry relative="1" as="geometry">
            <Array as="points">
              <mxPoint x="330" y="800" />
              <mxPoint x="330" y="850" />
            </Array>
          </mxGeometry>
        </mxCell>
        <mxCell id="OHCb3kpunpdSkLjku3Yf-37" value="Guarda la encuesta&amp;nbsp;" style="rounded=1;whiteSpace=wrap;html=1;fillColor=#ffffc0;strokeColor=#ff0000;fontColor=#000000;arcSize=40;" vertex="1" parent="OHCb3kpunpdSkLjku3Yf-18">
          <mxGeometry x="270" y="750" width="124" height="50" as="geometry" />
        </mxCell>
        <mxCell id="OHCb3kpunpdSkLjku3Yf-38" value="Muestra botón &quot;Agregar pregunta &quot;" style="whiteSpace=wrap;html=1;fillColor=#ffffc0;strokeColor=#ff0000;fontColor=#000000;rounded=1;arcSize=40;" vertex="1" parent="OHCb3kpunpdSkLjku3Yf-18">
          <mxGeometry x="240" y="470" width="120" height="60" as="geometry" />
        </mxCell>
        <mxCell id="Ns2S3s4eIvrN6nV5XpnW-13" style="edgeStyle=orthogonalEdgeStyle;rounded=0;orthogonalLoop=1;jettySize=auto;html=1;entryX=0.5;entryY=0;entryDx=0;entryDy=0;fontSize=12;startSize=8;endSize=8;" edge="1" parent="OHCb3kpunpdSkLjku3Yf-18" source="Ns2S3s4eIvrN6nV5XpnW-3" target="OHCb3kpunpdSkLjku3Yf-19">
          <mxGeometry relative="1" as="geometry" />
        </mxCell>
        <mxCell id="Ns2S3s4eIvrN6nV5XpnW-3" value="Mostrar mensaje de éxito" style="rounded=1;whiteSpace=wrap;html=1;fillColor=#ffffc0;strokeColor=#ff0000;fontColor=#000000;arcSize=40;" vertex="1" parent="OHCb3kpunpdSkLjku3Yf-18">
          <mxGeometry x="300" y="860" width="120" height="60" as="geometry" />
        </mxCell>
        <mxCell id="Ns2S3s4eIvrN6nV5XpnW-7" value="¿Campos diligenciados?" style="rhombus;whiteSpace=wrap;html=1;fontColor=#000000;fillColor=#ffffc0;strokeColor=#ff0000;" vertex="1" parent="OHCb3kpunpdSkLjku3Yf-18">
          <mxGeometry x="104" y="755" width="114" height="40" as="geometry" />
        </mxCell>
        <mxCell id="Ns2S3s4eIvrN6nV5XpnW-8" value="si" style="edgeStyle=orthogonalEdgeStyle;html=1;align=left;verticalAlign=bottom;endArrow=open;endSize=8;strokeColor=#ff0000;rounded=0;fontSize=12;entryX=0.5;entryY=0;entryDx=0;entryDy=0;" edge="1" parent="OHCb3kpunpdSkLjku3Yf-18" source="Ns2S3s4eIvrN6nV5XpnW-7" target="OHCb3kpunpdSkLjku3Yf-37">
          <mxGeometry x="-1" relative="1" as="geometry">
            <mxPoint x="248" y="420" as="targetPoint" />
            <Array as="points">
              <mxPoint x="202" y="770" />
              <mxPoint x="202" y="710" />
              <mxPoint x="332" y="710" />
            </Array>
          </mxGeometry>
        </mxCell>
        <mxCell id="BkWg1PTLzmH1Bw_0LUeE-1" value="Mostrar mensaje de error" style="rounded=1;whiteSpace=wrap;html=1;fillColor=#ffffc0;strokeColor=#ff0000;fontColor=#000000;arcSize=40;" vertex="1" parent="OHCb3kpunpdSkLjku3Yf-18">
          <mxGeometry x="24" y="850" width="124" height="50" as="geometry" />
        </mxCell>
        <mxCell id="Ns2S3s4eIvrN6nV5XpnW-9" value="" style="edgeStyle=orthogonalEdgeStyle;html=1;align=left;verticalAlign=top;endArrow=open;endSize=8;strokeColor=#ff0000;rounded=0;fontSize=12;entryX=1;entryY=0.5;entryDx=0;entryDy=0;exitX=0.5;exitY=1;exitDx=0;exitDy=0;" edge="1" parent="OHCb3kpunpdSkLjku3Yf-18" source="Ns2S3s4eIvrN6nV5XpnW-7" target="BkWg1PTLzmH1Bw_0LUeE-1">
          <mxGeometry x="-1" relative="1" as="geometry">
            <mxPoint x="148" y="895" as="targetPoint" />
            <Array as="points">
              <mxPoint x="161" y="815" />
              <mxPoint x="174" y="815" />
              <mxPoint x="174" y="875" />
            </Array>
            <mxPoint x="161" y="815" as="sourcePoint" />
          </mxGeometry>
        </mxCell>
        <mxCell id="Ns2S3s4eIvrN6nV5XpnW-14" value="no" style="edgeLabel;html=1;align=center;verticalAlign=middle;resizable=0;points=[];fontSize=12;" connectable="0" vertex="1" parent="Ns2S3s4eIvrN6nV5XpnW-9">
          <mxGeometry x="-0.9409" y="2" relative="1" as="geometry">
            <mxPoint y="-1" as="offset" />
          </mxGeometry>
        </mxCell>
        <mxCell id="Ns2S3s4eIvrN6nV5XpnW-12" style="edgeStyle=orthogonalEdgeStyle;rounded=0;orthogonalLoop=1;jettySize=auto;html=1;entryX=0;entryY=0.5;entryDx=0;entryDy=0;fontSize=12;startSize=8;endSize=8;" edge="1" parent="OHCb3kpunpdSkLjku3Yf-1" source="OHCb3kpunpdSkLjku3Yf-35" target="Ns2S3s4eIvrN6nV5XpnW-7">
          <mxGeometry relative="1" as="geometry" />
        </mxCell>
        <mxCell id="BkWg1PTLzmH1Bw_0LUeE-2" style="edgeStyle=orthogonalEdgeStyle;rounded=0;orthogonalLoop=1;jettySize=auto;html=1;entryX=0;entryY=0.5;entryDx=0;entryDy=0;fontSize=12;startSize=8;endSize=8;" edge="1" parent="OHCb3kpunpdSkLjku3Yf-1" source="BkWg1PTLzmH1Bw_0LUeE-1" target="OHCb3kpunpdSkLjku3Yf-13">
          <mxGeometry relative="1" as="geometry" />
        </mxCell>
      </root>
    </mxGraphModel>
  </diagram>
</mxfile>
